<svg width="620" height="156" viewBox="0 0 620 156" fill="none" xmlns="http://www.w3.org/2000/svg" role="img" aria-labelledby="title desc">
	<title id="title">Money Tracker logo</title>
	<desc id="desc">Money Tracker wordmark with green finance mark.</desc>
	<rect x="18" y="18" width="120" height="120" rx="30" fill="#10231D"/>
	<path d="M48 59.5C48 53.701 52.701 49 58.5 49H102C107.523 49 112 53.477 112 59V101C112 106.523 107.523 111 102 111H58.5C52.701 111 48 106.299 48 100.5V59.5Z" fill="#F5FAF5"/>
	<path d="M55 62C55 58.686 57.686 56 61 56H110C113.314 56 116 58.686 116 62V95C116 98.314 113.314 101 110 101H61C57.686 101 55 98.314 55 95V62Z" fill="#DDFBEA"/>
	<path d="M62 71H89" stroke="#10231D" stroke-width="7" stroke-linecap="round"/>
	<path d="M62 86H78" stroke="#0F766E" stroke-width="7" stroke-linecap="round"/>
	<path d="M85 91L94 82L100.5 88.5L112 74" stroke="#059669" stroke-width="7" stroke-linecap="round" stroke-linejoin="round"/>
	<circle cx="112" cy="74" r="5" fill="#34D399"/>
	<text x="164" y="78" fill="#10231D" font-family="Inter, ui-sans-serif, system-ui, -apple-system, BlinkMacSystemFont, 'Segoe UI', sans-serif" font-size="44" font-weight="800" letter-spacing="0">Money</text>
	<text x="164" y="116" fill="#0F766E" font-family="Inter, ui-sans-serif, system-ui, -apple-system, BlinkMacSystemFont, 'Segoe UI', sans-serif" font-size="34" font-weight="700" letter-spacing="0">Tracker</text>
</svg>
